<?xml version="1.0" ?><svg height="64px" version="1.1" viewBox="0 0 64 64" width="64px" xmlns="http://www.w3.org/2000/svg" xmlns:xlink="http://www.w3.org/1999/xlink"><title/><desc/><defs/><g fill="none" fill-rule="evenodd" id="64px-Line" stroke="none" stroke-width="1"><g id="spa-enterprise"/><path d="M43,26 C45.757,26 48,23.757 48,21 C48,18.243 45.757,16 43,16 C40.243,16 38,18.243 38,21 C38,23.757 40.243,26 43,26 L43,26 Z M43,18 C44.654,18 46,19.346 46,21 C46,22.654 44.654,24 43,24 C41.346,24 40,22.654 40,21 C40,19.346 41.346,18 43,18 L43,18 Z" fill="#000000" id="Shape"/><path d="M7,43.999 C7.769,43.999 8.536,43.707 9.121,43.122 L12.282,39.961 L21.625,37.569 C20.659,39.298 20.149,40.454 20.114,40.537 C20.009,40.738 19.119,42.535 20.293,43.708 C20.714,44.129 21.259,44.263 21.781,44.263 C22.52,44.263 23.215,43.995 23.447,43.895 C23.561,43.838 24.7,43.263 26.336,42.315 L24.038,51.719 L20.878,54.879 C19.708,56.048 19.708,57.952 20.878,59.121 C21.463,59.706 22.231,59.998 22.999,59.998 C23.767,59.998 24.535,59.706 25.12,59.121 L39.12,45.121 C40.29,43.952 40.29,42.048 39.12,40.879 C37.95,39.709 36.048,39.709 34.878,40.879 L32,43.758 L32,38.652 C33.092,37.859 34.183,37.001 35.214,36.095 C37.55,37.305 40.193,38 43,38 C52.374,38 60,30.374 60,21 C60,11.626 52.374,4 43,4 C33.626,4 26,11.626 26,21 C26,23.801 26.693,26.439 27.898,28.771 C26.922,29.851 26.037,30.94 25.244,32 L20.242,32 L23.121,29.121 C24.291,27.952 24.291,26.048 23.121,24.879 C21.951,23.709 20.049,23.709 18.879,24.879 L4.879,38.879 C3.709,40.048 3.709,41.952 4.879,43.121 C5.464,43.706 6.231,43.999 7,43.999 L7,43.999 Z M6.293,41.707 C5.903,41.317 5.903,40.683 6.293,40.293 C6.488,40.098 6.744,40 7,40 C7.256,40 7.512,40.098 7.707,40.292 C8.097,40.682 8.097,41.316 7.707,41.706 C7.316,42.097 6.684,42.097 6.293,41.707 L6.293,41.707 Z M22.293,57.707 C21.903,57.317 21.903,56.683 22.293,56.293 C22.488,56.098 22.744,56 23,56 C23.256,56 23.512,56.098 23.707,56.292 C24.097,56.682 24.097,57.316 23.707,57.706 C23.316,58.097 22.684,58.097 22.293,57.707 L22.293,57.707 Z M36.293,42.293 C36.684,41.903 37.316,41.903 37.707,42.293 C38.097,42.683 38.097,43.317 37.707,43.707 L25.698,55.716 C25.555,55.415 25.37,55.128 25.121,54.879 C24.872,54.63 24.585,54.445 24.284,54.302 L36.293,42.293 L36.293,42.293 Z M30,45.758 L26.764,48.994 L28.753,40.853 C29.158,40.597 29.576,40.323 30,40.041 L30,45.758 L30,45.758 Z M43,6 C51.271,6 58,12.729 58,21 C58,29.271 51.271,36 43,36 C34.729,36 28,29.271 28,21 C28,12.729 34.729,6 43,6 L43,6 Z M33.405,35.02 C28.667,39.025 22.622,42.071 22.614,42.077 C22.272,42.218 21.79,42.295 21.711,42.298 C21.655,42.192 21.728,41.776 21.917,41.398 C21.943,41.34 24.359,35.836 28.964,30.575 C30.157,32.317 31.664,33.826 33.405,35.02 L33.405,35.02 Z M23.823,34 C23.562,34.387 23.316,34.764 23.083,35.131 L15.058,37.186 L18.242,34 L23.823,34 L23.823,34 Z M20.293,26.293 C20.684,25.903 21.316,25.903 21.707,26.293 C22.097,26.683 22.097,27.317 21.707,27.707 L9.698,39.716 C9.555,39.415 9.37,39.128 9.121,38.879 C8.872,38.63 8.585,38.445 8.284,38.302 L20.293,26.293 L20.293,26.293 Z" fill="#000000" id="Shape"/></g></svg>